<svg xmlns="http://www.w3.org/2000/svg" viewBox="0 0 24 24"><title>icon-print</title><g id="Warstwa_2" data-name="Warstwa 2"><g id="contact"><g id="fax"><path d="M22.51,18h-4a.5.5,0,0,1,0-1h4a.53.53,0,0,0,.49-.54V9.1a1.5,1.5,0,0,0-.25-.83L21.24,6H2.77L1.25,8.27A1.49,1.49,0,0,0,1,9.11v7.35a.53.53,0,0,0,.49.54h4a.5.5,0,0,1,0,1h-4A1.52,1.52,0,0,1,0,16.46V9.11A2.49,2.49,0,0,1,.42,7.72l1.66-2.5A.5.5,0,0,1,2.5,5h19a.5.5,0,0,1,.42.22l1.66,2.5A2.5,2.5,0,0,1,24,9.1v7.36A1.52,1.52,0,0,1,22.51,18Z" style="fill:#fff"/><path d="M18.5,6H5.5A.5.5,0,0,1,5,5.5V.5A.5.5,0,0,1,5.5,0h13a.5.5,0,0,1,.5.5v5A.5.5,0,0,1,18.5,6ZM6,5H18V1H6Z" style="fill:#fff"/><path d="M18.5,24H5.5a.5.5,0,0,1-.5-.5v-9a.5.5,0,0,1,.5-.5h13a.5.5,0,0,1,.5.5v9A.5.5,0,0,1,18.5,24ZM6,23H18V15H6Z" style="fill:#fff"/><path d="M15.5,18h-7a.5.5,0,0,1,0-1h7a.5.5,0,0,1,0,1Z" style="fill:#fff"/><path d="M13.5,21h-5a.5.5,0,0,1,0-1h5a.5.5,0,0,1,0,1Z" style="fill:#fff"/><circle cx="17.5" cy="9.5" r="0.5" style="fill:#fff"/><circle cx="20.5" cy="9.5" r="0.5" style="fill:#fff"/><path d="M20.5,15H3.5a.5.5,0,0,1,0-1h17a.5.5,0,0,1,0,1Z" style="fill:#fff"/></g></g></g></svg>