<svg 
 xmlns="http://www.w3.org/2000/svg"
 xmlns:xlink="http://www.w3.org/1999/xlink"
 width="88px" height="87px">
<path fill-rule="evenodd"  fill="rgb(255, 255, 255)"
 d="M0.000,86.999 L0.000,62.986 C0.000,61.838 0.930,60.907 2.078,60.907 C3.225,60.907 4.155,61.838 4.155,62.986 L4.155,82.842 L83.845,82.842 L83.845,62.986 C83.845,61.838 84.775,60.907 85.923,60.907 C87.070,60.907 88.000,61.838 88.000,62.986 L88.000,86.999 L0.000,86.999 ZM44.245,75.104 L23.899,54.743 C23.088,53.932 23.088,52.615 23.899,51.803 C24.711,50.991 26.026,50.991 26.837,51.803 L41.922,66.900 L41.922,2.079 C41.922,0.931 42.853,-0.000 44.000,-0.000 C45.147,-0.000 46.077,0.931 46.077,2.079 L46.077,67.390 L61.163,52.293 C61.975,51.481 63.290,51.482 64.101,52.293 C64.912,53.105 64.912,54.421 64.101,55.233 L44.245,75.104 Z"/>
</svg>