<?xml version="1.0" encoding="utf-8"?>
<!-- Generator: Adobe Illustrator 22.0.1, SVG Export Plug-In . SVG Version: 6.00 Build 0)  -->
<svg version="1.1" id="Layer_1" xmlns="http://www.w3.org/2000/svg" xmlns:xlink="http://www.w3.org/1999/xlink" x="0px" y="0px"
	 viewBox="0 0 100 100" style="enable-background:new 0 0 100 100;" xml:space="preserve">
<style type="text/css">
	.st0{fill:#543226;}
</style>
<g>
	<path class="st0" d="M80.5,12.5H38.6c-3.866,0-7,3.134-7,7v41.9c0,3.866,3.134,7,7,7h41.9c3.866,0,7-3.134,7-7V19.5
		C87.5,15.634,84.366,12.5,80.5,12.5z M81.5,61.4c0,0.552-0.448,1-1,1H38.6c-0.552,0-1-0.448-1-1V19.5c0-0.552,0.448-1,1-1h41.9
		c0.552,0,1,0.448,1,1V61.4z"/>
	<path class="st0" d="M19.5,37.6h5.2c1.657,0,3-1.343,3-3s-1.343-3-3-3h-5.2c-3.866,0-7,3.134-7,7v41.9c0,3.866,3.134,7,7,7h41.9
		c3.866,0,7-3.134,7-7v-5c0-1.657-1.343-3-3-3s-3,1.343-3,3v5c0,0.552-0.448,1-1,1H19.5c-0.552,0-1-0.448-1-1V38.6
		C18.5,38.048,18.948,37.6,19.5,37.6z"/>
</g>
</svg>
